<svg xmlns="http://www.w3.org/2000/svg" viewBox="0 0 64 64" width="64" height="64">
  <rect width="64" height="64" rx="12" fill="#BF5700"/>
  <g fill="white">
    <!-- Longhorn silhouette - iconic wide horns -->
    <!-- Left horn -->
    <path d="M30,28 C26,24 18,18 12,16 C8,14.5 4,15 3,17 C4,18 8,19 12,20.5 C17,22.5 23,25 28,30 Z"/>
    <!-- Right horn -->
    <path d="M34,28 C38,24 46,18 52,16 C56,14.5 60,15 61,17 C60,18 56,19 52,20.5 C47,22.5 41,25 36,30 Z"/>
    <!-- Head -->
    <path d="M26,30 C26,26 28,24 32,24 C36,24 38,26 38,30 L38,42 C38,46 36,50 32,50 C28,50 26,46 26,42 Z"/>
    <!-- Snout -->
    <rect x="27" y="42" width="10" height="8" rx="4" fill="white"/>
    <!-- Nostrils -->
    <circle cx="30" cy="47" r="1.3" fill="#BF5700"/>
    <circle cx="34" cy="47" r="1.3" fill="#BF5700"/>
    <!-- Eyes -->
    <circle cx="29" cy="33" r="1.3" fill="#BF5700"/>
    <circle cx="35" cy="33" r="1.3" fill="#BF5700"/>
    <!-- Ears -->
    <path d="M26,28 C24,25 22,26 23,28 C24,30 26,30 26,28 Z"/>
    <path d="M38,28 C40,25 42,26 41,28 C40,30 38,30 38,28 Z"/>
  </g>
</svg>
